<?xml version="1.0" encoding="utf-8"?>
<svg xmlns="http://www.w3.org/2000/svg" version="1.1" width="310px" height="60px" style="shape-rendering:geometricPrecision; text-rendering:geometricPrecision; image-rendering:optimizeQuality; fill-rule:evenodd; clip-rule:evenodd">
  <g/>
  <g>
    <path style="opacity:0.773" fill="#393738" d="M 158.5,5.5 C 151.535,4.65905 144.535,4.32572 137.5,4.5C 134.687,4.54807 132.021,5.21473 129.5,6.5C 126.537,4.99936 123.37,4.3327 120,4.5C 114.824,5.72826 109.657,5.72826 104.5,4.5C 101.001,4.40132 97.6679,5.06799 94.5,6.5C 93.5,6 92.5,5.5 91.5,5C 83.0881,4.19898 74.7548,4.36565 66.5,5.5C 60.1961,4.74032 53.8627,4.40699 47.5,4.5C 53.0373,3.19221 58.7039,3.19221 64.5,4.5C 65.5,4 66.5,3.5 67.5,3C 75.5,2.33333 83.5,2.33333 91.5,3C 92.6086,3.63771 93.7753,4.13771 95,4.5C 98.4647,3.67244 101.965,3.00577 105.5,2.5C 110.782,3.68136 115.782,3.68136 120.5,2.5C 123.681,3.11338 126.848,3.78004 130,4.5C 139.131,3.37352 148.298,3.20685 157.5,4C 158.056,4.38258 158.389,4.88258 158.5,5.5 Z"/>
  </g>
  <g>
    <path style="opacity:0.992" fill="#090502" d="M 137.5 4.5 C 142.316 5.326 147.385 5.94 152.569 6.114 C 145.823 5.983 139.49 6.816 133.569 8.614 C 133.569 8.947 133.621 9.06 133.621 9.393 C 133.621 23.393 133.5 37.5 133.5 51.5 C 135.322 53.234 137.816 53.88 140.5 54.5 C 143.823 53.243 147.542 52.824 150.5 54.5 C 150.137 55.184 149.804 55.85 149.5 56.5 C 134.245 56.1 118.912 55.933 103.5 56 C 100.667 53.167 97.833 50.333 95 47.5 C 93.748 44.987 93.248 42.32 93.5 39.5 C 94.653 33.681 94.819 27.681 94 21.5 C 91.772 19.887 89.272 19.22 86.5 19.5 C 86.802 22.059 86.468 24.393 85.5 26.5 C 85.085 23.833 85.098 21.153 85.5 18.5 C 87.099 18.768 88.432 18.435 89.5 17.5 C 89.833 17.5 90.167 17.5 90.5 17.5 C 91.477 14.713 91.81 11.713 91.5 8.5 C 83.5 8.5 75.5 8.5 67.5 8.5 C 67.5 11.5 67.5 14.5 67.5 17.5 C 69.5 17.5 71.5 17.5 73.5 17.5 C 73.5 28.833 73.5 40.167 73.5 51.5 C 72.522 51.189 71.856 50.522 71.5 49.5 C 72.406 39.385 72.739 29.385 72.5 19.5 C 69.191 20.193 66.024 20.193 63 19.5 C 61.699 19.639 60.866 20.305 60.5 21.5 C 58.833 21.5 56.699 24.775 55.032 24.775 C 54.487 28.447 54.504 24.838 54.382 20.5 C 56.03 19.074 58.089 18.142 60.441 17.902 C 61.278 16.891 61.67 15.665 61.5 14.343 C 62.496 14.257 63.132 14.315 63.803 15.067 C 64.49 12.647 64.187 10.913 62.5 9 C 63.536 7.383 64.703 7.216 66 8.5 C 66.483 7.552 66.65 6.552 66.5 5.5 C 74.755 4.366 83.088 4.199 91.5 5 C 92.5 5.5 93.5 6 94.5 6.5 C 97.668 5.068 101.001 4.401 104.5 4.5 C 109.657 5.728 114.824 5.728 120 4.5 C 123.37 4.333 126.537 4.999 129.5 6.5 C 132.021 5.215 134.687 4.548 137.5 4.5 Z"/>
  </g>
  <g>
    <path style="opacity:1" fill="#140404" d="M 197.5 27.5 C 196.778 27.083 196.278 26.416 196 25.5 C 195.667 25.833 195.333 26.167 195 26.5 C 195.03 29.362 194.197 31.695 192.5 33.5 C 192.802 30.941 192.468 28.607 191.5 26.5 C 188.375 25.521 184.814 25.465 181.272 25.778 C 181.272 23.445 181.341 20.625 181.341 18.292 C 185.543 18.609 189.317 18.12 193.115 17.137 C 193.115 14.137 193.034 12.016 193.034 9.016 C 184.85 8.69 177.682 8.924 169.866 9.916 C 169.866 23.916 169.5 37.5 169.5 51.5 C 167.62 51.229 166.287 51.896 165.5 53.5 C 164.842 52.602 164.176 51.602 163.5 50.5 C 161.35 52.149 159.35 53.982 157.5 56 C 154.854 56.497 152.187 56.664 149.5 56.5 C 149.804 55.85 150.137 55.184 150.5 54.5 C 147.156 53.243 144.081 53.758 140.5 54.5 C 137.655 54.234 135.322 53.234 133.5 51.5 C 140.841 51.666 148.174 51.5 155.5 51 C 157.041 49.629 158.375 48.129 159.5 46.5 C 160.458 46.047 161.292 45.381 162 44.5 C 162.825 34.658 161.945 25.141 160.787 15.65 C 160.454 14.65 160.162 14.377 159.162 14.044 C 158.037 12.415 156.872 10.709 155.331 9.338 C 148.005 8.838 138.88 8.783 131.539 8.949 C 137.46 7.151 142.63 5.74 149.376 6 C 144.192 5.826 142.219 5.712 137.5 4.5 C 144.535 4.326 151.664 4.369 158.5 5.5 C 160.463 6.96 162.296 8.627 164 10.5 C 164.068 7.681 165.234 5.514 167.5 4 C 176.833 3.333 186.167 3.333 195.5 4 C 196.333 4.833 197.167 5.667 198 6.5 C 198.975 12.17 198.475 17.67 196.5 23 C 197.148 24.44 197.481 25.94 197.5 27.5 Z"/>
  </g>
  <g>
    <path style="opacity:1" fill="#100611" d="M 267.5 3.5 C 267.414 4.496 267.96 5.178 268.712 5.849 C 270.594 6.047 272.486 6.774 273.938 7.576 C 271.971 7.337 269.926 7.836 268.227 8.742 C 267.727 15.067 267.538 21.565 267.704 27.907 C 265.117 26.553 263.76 27.282 263.681 30.636 C 263.425 36.979 263.894 43.682 264.817 50.339 C 264.273 51.056 262.972 51.647 262.183 51.93 C 262.35 39.592 262.193 27.136 261.693 14.807 C 257.607 9.082 252.659 7.462 245.745 9.521 C 244.191 11.413 242.112 12.755 240 13.863 C 237.888 12.755 236.161 11.426 234.607 9.534 C 230.749 8.724 227.083 8.891 223.607 10.034 C 222.498 10.091 221.476 10.274 220.585 10.884 C 219.965 9.4 219.243 8.499 217.5 8.5 C 218.625 6.871 219.959 5.371 221.5 4 C 226.167 3.333 230.833 3.333 235.5 4 C 237.286 4.785 238.786 5.951 240 7.5 C 241.167 6.333 242.333 5.167 243.5 4 C 248.167 3.333 252.833 3.333 257.5 4 C 259.305 4.972 260.972 6.139 262.5 7.5 C 263.605 5.389 265.271 4.055 267.5 3.5 Z"/>
  </g>
  <g>
    <path style="opacity:1" fill="#06060b" d="M 47.5 4.5 C 53.863 4.407 60.278 4.74 66.582 5.5 C 66.732 6.552 66.581 7.683 66.098 8.631 C 64.801 7.347 63.814 7.383 62.778 9 C 64.465 10.913 64.687 13.08 64 15.5 C 63.329 14.748 62.496 14.414 61.5 14.5 C 61.5 12.5 61.5 10.5 61.5 8.5 C 57.154 8.334 52.821 8.501 48.5 9 C 47.944 9.383 47.611 9.883 47.5 10.5 C 44.865 11.474 42.988 13.571 41.623 15.931 C 39.83 16.315 39.384 17.05 39.177 19 C 41.234 24.092 39.588 29.12 35.531 32.361 C 34.861 30.57 33.856 28.35 33.192 26.808 C 29.73 25.826 26.063 25.554 22.192 25.869 C 22.192 23.536 22.223 20.464 22.223 18.131 C 26.094 18.446 29.884 18.051 33.346 17.069 C 34.013 17.069 34.285 16.798 34.285 16.131 C 35.602 13.401 35.54 11.214 34.223 8.277 C 26.378 7.455 18.989 7.559 11.5 8.715 C 10.833 8.715 10.746 8.833 10.746 9.5 C 9.75 24.324 9.171 39.324 9.5 54.5 C 8.5 54.5 7.5 54.5 6.5 54.5 C 5.833 38.5 5.167 22.5 4.5 6.5 C 4.449 3.799 4.5 3.814 6.5 3.5 C 15.771 2.847 24.937 2.514 34 2.5 C 37.436 3.1 39.269 5.1 39.5 8.5 C 42.368 7.647 45.035 6.314 47.5 4.5 Z"/>
  </g>
  <g>
    <path style="opacity:1" fill="#00143a" d="M 11.5,8.5 C 18.9887,7.34434 26.6554,7.17767 34.5,8C 35.8166,10.9365 35.8166,13.7699 34.5,16.5C 34.8016,13.9407 34.4682,11.6074 33.5,9.5C 26.3524,8.50837 19.0191,8.17503 11.5,8.5 Z"/>
  </g>
  <g>
    <path style="opacity:1" fill="#832e1c" d="M 133.5 9.5 C 133.5 9.167 133.5 8.833 133.5 8.5 C 140.777 7.883 148.174 8.146 155.5 9 C 157.266 10.049 158.6 11.549 159.5 13.5 C 156.172 14.084 155.214 12.505 154.5 10.5 C 147.333 10.153 140.687 9.819 133.5 9.5 Z"/>
  </g>
  <g>
    <path style="opacity:1" fill="#630471" d="M 223.5 9.5 C 226.976 8.357 230.642 8.19 234.5 9 C 236.054 10.892 237.888 12.226 240 13.334 C 242.112 12.226 243.946 10.696 245.5 8.804 C 252.414 6.745 258.08 8.594 262.166 14.319 C 262.666 26.648 262.667 39.162 262.5 51.5 C 262.167 51.5 261.709 51.5 261.376 51.5 C 261.704 39.322 261.371 27.499 260.376 15.677 C 254.326 7.879 248.117 7.535 241.5 15 C 240.072 15.579 238.738 15.412 237.5 14.5 C 236.375 12.871 235.041 11.371 233.5 10 C 230.183 9.502 226.85 9.335 223.5 9.5 Z"/>
  </g>
  <g>
    <path style="opacity:1" fill="#dc04fb" d="M 260.5,15.5 C 260.5,27.1667 260.5,38.8333 260.5,50.5C 257.833,50.5 255.167,50.5 252.5,50.5C 252.828,39.3206 252.495,28.3206 251.5,17.5C 250.207,16.8418 248.707,16.5085 247,16.5C 245.019,16.6292 243.353,17.2958 242,18.5C 240.302,17.2593 238.802,15.926 237.5,14.5C 238.738,15.4124 240.072,15.5791 241.5,15C 248.117,7.53544 254.45,7.70211 260.5,15.5 Z"/>
  </g>
  <g>
    <path style="opacity:0.982" fill="#0b070b" d="M 267.5 3.5 C 277.797 4.364 288.13 4.531 298.5 4 C 300.538 5.236 301.705 7.069 302 9.5 C 302.856 17.232 302.523 24.898 301 32.5 C 298.294 34.871 295.961 37.537 294 40.5 C 293.881 45.282 293.215 49.949 292 54.5 C 286.31 58.108 280.477 58.441 274.5 55.5 C 275.735 55.279 276.735 54.612 277.5 53.5 C 278.086 53.709 278.586 54.043 279 54.5 C 282.411 53.707 285.911 53.207 289.5 53 C 290 52.5 290.5 52 291 51.5 C 292.215 46.949 292.881 42.282 293 37.5 C 294.372 36.09 295.205 34.423 295.5 32.5 C 295.5 32.167 295.149 31.412 295.149 31.079 C 296.472 27.641 297.49 24.229 297.5 20 C 297.499 15.985 297.077 12.502 296.412 8.85 C 294.778 8.189 293.033 7.646 291 7.64 C 288.705 7.687 287.344 8.511 285.973 9.798 C 284.983 15.608 284.528 21.713 284.851 27.903 C 283.518 27.903 281.64 27.798 280.307 27.798 C 280.63 21.608 280.245 15.573 279.255 9.763 C 277.765 7.983 276.01 7.054 273.5 7.5 C 272.048 6.698 270.382 6.198 268.5 6 C 267.748 5.329 267.414 4.496 267.5 3.5 Z"/>
  </g>
  <g>
    <path style="opacity:1" fill="#300036" d="M 296.5,8.5 C 292.958,8.18723 289.625,8.52056 286.5,9.5C 286.167,9.5 285.833,9.5 285.5,9.5C 286.871,8.21317 288.705,7.5465 291,7.5C 293.033,7.50558 294.866,7.83891 296.5,8.5 Z"/>
  </g>
  <g>
    <path style="opacity:0.945" fill="#0a020a" d="M 217.5 8.5 C 219.179 8.285 220.179 8.952 220.5 10.5 C 220.315 12.196 219.481 13.529 218 14.5 C 217.5 27.162 217.674 39.488 217.841 52.159 C 221.712 52.474 224.892 52.092 228.354 51.11 C 229.349 40.289 229.642 29.387 229.314 18.208 C 230.647 18.208 232.671 18.261 234.004 18.261 C 233.676 29.44 234.009 40.44 235.004 51.261 C 238.671 51.261 241.833 51.5 245.5 51.5 C 245.5 40.5 245.5 29.5 245.5 18.5 C 247.167 18.5 248.989 18.375 250.656 18.375 C 250.328 29.554 250.505 40.679 251.5 51.5 C 254.833 51.5 258.167 51.5 261.5 51.5 C 261.833 51.5 262.167 51.5 262.5 51.5 C 263.289 51.217 263.956 50.717 264.5 50 C 263.577 43.343 263.244 36.843 263.5 30.5 C 263.579 27.146 265.187 26.114 267.774 27.468 C 267.537 28.759 267.902 29.55 268.806 30.259 C 270.206 30.859 271.528 31.649 272.128 33.049 C 273.421 34.845 274.599 36.786 276.306 38.323 C 276.481 42.843 277.11 47.015 277.935 51.162 C 281.268 51.162 283.939 51.272 287.272 51.272 C 287.768 45.884 288.996 40.779 290.5 35.5 C 292.411 34.925 294.323 32.89 295.903 32.149 C 295.608 34.072 294.775 35.739 293.403 37.149 C 293.284 41.931 292.583 47.142 291.368 51.693 C 290.868 52.193 290.035 52.868 289.535 53.368 C 285.946 53.575 282.306 54.18 278.895 54.973 C 278.481 54.516 278.296 54.042 277.71 53.833 C 276.945 54.945 275.735 55.279 274.5 55.5 C 273.21 54.942 272.377 53.942 272 52.5 C 271.667 48.5 271.333 44.5 271 40.5 C 270 39.5 269 38.5 268 37.5 C 267.667 41.833 267.333 46.167 267 50.5 C 266.705 52.931 265.538 54.764 263.5 56 C 236.237 56.426 208.904 56.592 181.5 56.5 C 176.5 56.333 171.5 56.167 166.5 56 C 165.748 55.329 165.414 54.496 165.5 53.5 C 166.062 51.735 167.62 51.036 169.5 51.307 C 173.319 51.973 177.319 52.499 181.5 52.5 C 185.893 52.491 188.874 51.811 192.481 50.487 C 192.481 47.82 193.142 45.615 193.142 42.948 C 188.809 42.948 184.534 42.873 180.201 42.873 C 180.201 40.206 180.216 36.839 180.216 34.172 C 184.418 34.489 188.478 34.184 192.276 33.201 C 193.973 31.396 194.091 28.436 194.061 25.574 C 194.394 25.241 195.592 24.931 195.925 24.598 C 196.203 25.514 196.779 26.936 197.501 27.353 C 197.338 29.71 197.503 32.19 198 34.5 C 198.383 33.944 198.883 33.611 199.5 33.5 C 201.223 34.8 203.39 35.467 206 35.5 C 208.167 35.333 210.333 35.167 212.5 35 C 213.824 30.067 213.824 25.234 212.5 20.5 C 211.465 15.274 213.132 11.274 217.5 8.5 Z"/>
  </g>
  <g>
    <path style="opacity:1" fill="#5b0169" d="M 273.5 7.252 C 276.01 6.806 278.01 7.72 279.5 9.5 C 279.5 15.833 279.5 22.167 279.5 28.5 C 281.5 28.5 283.5 28.5 285.5 28.5 C 283.393 29.468 281.059 29.802 278.5 29.5 C 278.5 22.833 278.5 16.167 278.5 9.5 C 275.167 9.5 271.833 9.5 268.5 9.5 C 268.5 16.5 268.5 23.5 268.5 30.5 C 267.596 29.791 267.263 28.791 267.5 27.5 C 267.334 21.158 267.5 14.825 268 8.5 C 269.699 7.594 271.533 7.013 273.5 7.252 Z"/>
  </g>
  <g>
    <path style="opacity:1" fill="#154e9d" d="M 11.069 8.531 C 18.619 7.96 27.121 8.57 34.269 9.562 C 26.936 9.562 18.833 9.5 11.5 9.5 C 11.5 23.167 11.5 36.833 11.5 50.5 C 18.833 50.5 26.167 50.5 33.5 50.5 C 33.5 48.167 31.716 45.279 33.5 43.377 C 35.334 45.302 34.806 48.615 34.5 51.5 C 26.5 51.5 18.5 51.5 10.5 51.5 C 10.5 37.5 10.5 23.5 10.5 9.5 C 10.5 8.833 10.402 8.531 11.069 8.531 Z"/>
  </g>
  <g>
    <path style="opacity:1" fill="#241700" d="M 115.5,8.5 C 115.5,8.83333 115.5,9.16667 115.5,9.5C 115.5,20.5 115.5,31.5 115.5,42.5C 113.5,42.5 111.5,42.5 109.5,42.5C 109.5,32.1667 109.5,21.8333 109.5,11.5C 110.494,21.3194 110.827,31.3194 110.5,41.5C 111.833,41.5 113.167,41.5 114.5,41.5C 114.172,30.3206 114.505,19.3206 115.5,8.5 Z"/>
  </g>
  <g>
    <path style="opacity:1" fill="#efca0b" d="M 109.5 9.5 C 109.5 10.167 109.5 10.833 109.5 11.5 C 109.5 21.833 109.5 32.167 109.5 42.5 C 111.5 42.5 113.5 42.5 115.5 42.5 C 116.494 32.013 116.113 21.298 116.347 10.363 C 119.014 10.363 122.047 10.286 124.714 10.286 C 124.714 23.619 124.5 37.167 124.5 50.5 C 117.323 51.357 110.323 50.335 103.5 48.5 C 101.833 47.5 100.5 46.167 99.5 44.5 C 99.5 32.833 99.5 21.167 99.5 9.5 C 102.833 9.5 106.167 9.5 109.5 9.5 Z"/>
  </g>
  <g>
    <path style="opacity:1" fill="#7b6810" d="M 115.5,9.5 C 115.5,9.16667 115.5,8.83333 115.5,8.5C 119.167,8.5 122.833,8.5 126.5,8.5C 126.829,23.0097 126.496,37.3431 125.5,51.5C 125.5,37.5 125.5,23.5 125.5,9.5C 122.167,9.5 118.833,9.5 115.5,9.5 Z"/>
  </g>
  <g>
    <path style="opacity:1" fill="#d906f7" d="M 223.5,9.5 C 226.85,9.33499 230.183,9.50166 233.5,10C 235.041,11.3712 236.375,12.8712 237.5,14.5C 238.802,15.926 240.302,17.2593 242,18.5C 243.353,17.2958 245.019,16.6292 247,16.5C 248.707,16.5085 250.207,16.8418 251.5,17.5C 249.5,17.5 247.5,17.5 245.5,17.5C 244.505,28.3206 244.172,39.3206 244.5,50.5C 241.5,50.5 238.5,50.5 235.5,50.5C 235.828,39.3206 235.495,28.3206 234.5,17.5C 232.5,17.5 230.5,17.5 228.5,17.5C 227.505,28.3206 227.172,39.3206 227.5,50.5C 224.833,50.5 222.167,50.5 219.5,50.5C 219.333,39.1618 219.5,27.8284 220,16.5C 221.947,14.9366 223.114,12.9366 223.5,10.5C 223.5,10.1667 223.5,9.83333 223.5,9.5 Z"/>
  </g>
  <g>
    <path style="opacity:1" fill="#4b025b" d="M 286.325 9.518 C 289.45 8.538 292.958 7.977 296.5 8.29 C 297.165 11.942 297.499 15.985 297.5 20 C 297.49 24.229 296.823 28.062 295.5 31.5 C 296.464 24.254 296.797 16.92 296.5 9.5 C 293.167 9.5 289.658 9.518 286.325 9.518 Z"/>
  </g>
  <g>
    <path style="opacity:1" fill="#988421" d="M 109.5,9.5 C 106.167,9.5 102.833,9.5 99.5,9.5C 99.5,21.1667 99.5,32.8333 99.5,44.5C 98.5049,32.6783 98.1716,20.6783 98.5,8.5C 102.371,8.18503 106.038,8.51836 109.5,9.5 Z"/>
  </g>
  <g>
    <path style="opacity:1" fill="#d7bb23" d="M 115.5,9.5 C 118.833,9.5 122.167,9.5 125.5,9.5C 125.5,23.5 125.5,37.5 125.5,51.5C 118.825,51.6663 112.158,51.4996 105.5,51C 104.619,50.2917 103.953,49.4584 103.5,48.5C 110.323,50.3351 117.323,51.0018 124.5,50.5C 124.5,37.1667 124.5,23.8333 124.5,10.5C 121.833,10.5 119.167,10.5 116.5,10.5C 116.828,21.3464 116.494,32.0131 115.5,42.5C 115.5,31.5 115.5,20.5 115.5,9.5 Z"/>
  </g>
  <g>
    <path style="opacity:1" fill="#ba1f22" d="M 169.5 9.5 C 177.352 9.175 185.018 9.508 192.5 10.5 C 185.167 10.5 178.518 11.315 171.185 11.315 C 171.185 24.648 171.407 36.649 171.407 49.982 C 178.74 49.982 185.531 50.482 192.864 50.482 C 185.418 51.965 177.352 52.098 169.5 51.5 C 169.5 37.5 169.5 23.5 169.5 9.5 Z"/>
  </g>
  <g>
    <path style="opacity:1" fill="#730183" d="M 223.5 9.5 C 223.5 9.833 223.5 10.167 223.5 10.5 C 222.017 12.094 220.517 13.761 219 15.5 C 218.5 27.495 218.333 39.495 218.5 51.5 C 221.833 51.5 225.167 51.5 228.5 51.5 C 225.038 52.482 221.371 52.815 217.5 52.5 C 216.698 39.731 217.06 27.162 218 14.5 C 219.481 13.529 220.315 12.196 220.5 10.5 C 221.391 9.89 222.391 9.557 223.5 9.5 Z"/>
  </g>
  <g>
    <path style="opacity:1" fill="#3e0100" d="M 193.5 17.5 C 189.702 18.483 185.702 18.817 181.5 18.5 C 181.758 20.833 181.817 23.226 181.5 25.5 C 185.012 24.89 188.653 25.124 191.5 26.5 C 187.833 26.5 184.167 26.5 180.5 26.5 C 180.5 23.5 180.5 20.5 180.5 17.5 C 184.833 17.5 189.167 17.5 193.5 17.5 Z"/>
  </g>
  <g>
    <path style="opacity:0.992" fill="#0c0a0c" d="M 74.761 50.484 C 78.632 50.799 79.897 50.204 83.359 49.222 C 84.351 41.406 85.58 34.613 85.254 26.429 C 86.222 24.322 85.486 20.626 85.184 18.067 C 87.956 17.787 91.867 19.776 94.095 21.389 C 94.914 27.57 94.653 33.681 93.5 39.5 C 93.829 33.795 93.495 28.128 92.5 22.5 C 92.167 22.667 91.833 22.833 91.5 23 C 90.94 33.495 90.106 43.995 89 54.5 C 86.521 56.917 83.521 57.917 80 57.5 C 75.161 58.121 71.495 56.454 69 52.5 C 68.5 42.506 68.334 32.506 68.5 22.5 C 65.873 21.908 63.068 21.575 60.362 21.5 C 60.728 20.305 61.679 19.481 62.98 19.343 C 66.004 20.035 70.845 18.361 74.154 17.668 C 74.393 27.553 72.595 39.196 71.689 49.311 C 72.045 50.333 73.783 50.173 74.761 50.484 Z"/>
  </g>
  <g>
    <path style="opacity:1" fill="#062d56" d="M 61.638 14.5 C 61.808 15.822 61.337 16.989 60.5 18 C 58.148 18.24 56.384 19.005 54.736 20.431 C 53.785 21.85 53.216 23.585 53.5 25.5 C 52.307 25.03 51.64 24.03 51.5 22.5 C 51.667 21.5 51.833 20.5 52 19.5 C 54.224 17.946 56.724 16.946 59.5 16.5 C 60.474 14.257 60.808 11.924 60.5 9.5 C 56.102 9.294 51.651 9.686 47.382 10.559 C 47.493 9.942 47.865 9.285 48.421 8.902 C 52.742 8.403 57.233 8.098 61.579 8.264 C 61.579 10.264 61.638 12.5 61.638 14.5 Z"/>
  </g>
  <g>
    <path style="opacity:1" fill="#0f6f0c" d="M 90.609 17.499 C 90.275 17.499 89.833 17.5 89.5 17.5 C 87.833 17.5 86.167 17.5 84.5 17.5 C 84.5 28.5 84.5 39.5 84.5 50.5 C 81.553 50.848 78.703 50.515 76 49.5 C 75.667 38.833 75.333 28.167 75 17.5 C 72.959 16.577 70.793 16.244 68.5 16.5 C 68.5 14.167 68.5 11.833 68.5 9.5 C 75.833 9.5 83.167 9.5 90.5 9.5 C 90.5 12.167 90.609 14.832 90.609 17.499 Z"/>
  </g>
  <g>
    <path style="opacity:1" fill="#002900" d="M 90.613 17.492 C 89.545 18.427 87.237 18.952 85.638 18.684 C 85.638 21.351 85.5 23.833 85.5 26.5 C 85.826 34.684 85.492 42.684 84.5 50.5 C 84.5 39.5 84.5 28.5 84.5 17.5 C 86.167 17.5 88.946 17.492 90.613 17.492 Z"/>
  </g>
  <g>
    <path style="opacity:1" fill="#97181b" d="M 169.5 9.5 C 177.316 8.508 185.316 8.174 193.5 8.5 C 193.5 11.5 193.5 14.5 193.5 17.5 C 189.167 17.5 185.014 17.772 180.681 17.772 C 180.681 20.772 180.681 23.364 180.681 26.364 C 184.348 26.364 188.264 26.409 191.931 26.409 C 192.899 28.516 193.029 30.964 192.727 33.523 C 188.929 34.506 184.702 34.817 180.5 34.5 C 180.5 37.167 180.5 39.833 180.5 42.5 C 184.833 42.5 189.167 42.5 193.5 42.5 C 193.5 45.167 193.5 47.833 193.5 50.5 C 193.167 50.5 192.833 50.5 192.5 50.5 C 192.5 48.5 192.5 46.5 192.5 44.5 C 188.154 44.666 183.821 44.499 179.5 44 C 178.544 40.606 178.211 37.106 178.5 33.5 C 182.833 33.5 187.167 33.5 191.5 33.5 C 191.5 31.5 191.5 29.5 191.5 27.5 C 187.5 27.5 183.5 27.5 179.5 27.5 C 179.5 23.833 179.5 20.167 179.5 16.5 C 183.833 16.5 188.167 16.5 192.5 16.5 C 192.5 14.5 192.5 12.5 192.5 10.5 C 185.001 9.858 177.419 9.508 169.5 9.5 Z"/>
  </g>
  <g>
    <path style="opacity:1" fill="#be11d6" d="M 260.5,15.5 C 261.495,27.3217 261.828,39.3217 261.5,51.5C 258.167,51.5 254.833,51.5 251.5,51.5C 251.5,40.1667 251.5,28.8333 251.5,17.5C 252.495,28.3206 252.828,39.3206 252.5,50.5C 255.167,50.5 257.833,50.5 260.5,50.5C 260.5,38.8333 260.5,27.1667 260.5,15.5 Z"/>
  </g>
  <g>
    <path style="opacity:0.708" fill="#2f2a2b" d="M 212.5,20.5 C 213.824,25.2337 213.824,30.0671 212.5,35C 210.333,35.1667 208.167,35.3333 206,35.5C 203.39,35.4668 201.223,34.8001 199.5,33.5C 203.833,33.5 208.167,33.5 212.5,33.5C 212.5,29.1667 212.5,24.8333 212.5,20.5 Z"/>
  </g>
  <g>
    <path style="opacity:1" fill="#0d4d0f" d="M 90.587 17.532 C 90.587 14.865 90.316 12.328 90.316 9.661 C 82.983 9.661 75.833 9.5 68.5 9.5 C 68.5 11.833 68.615 14.029 68.615 16.362 C 70.908 16.106 73.097 16.462 75.138 17.385 C 75.471 28.052 75.667 38.833 76 49.5 C 78.719 50.444 81.553 50.777 84.5 50.5 C 81.038 51.482 77.371 51.815 73.5 51.5 C 73.5 40.167 73.385 28.971 73.385 17.638 C 71.385 17.638 69.408 17.661 67.408 17.661 C 67.408 14.661 67.454 11.408 67.454 8.408 C 75.454 8.408 83.723 8.405 91.723 8.405 C 92.033 11.618 91.564 14.745 90.587 17.532 Z"/>
  </g>
  <g>
    <path style="opacity:1" fill="#1361a6" d="M 47.5 10.5 C 42.438 15.818 41.723 21.946 44.119 29.294 C 46.911 29.417 48.911 30.75 50.119 33.294 C 48.315 34.638 44.373 31.12 42 29.5 C 41.501 24.845 41.334 20.179 41.5 15.5 C 42.865 13.14 44.865 11.474 47.5 10.5 Z"/>
  </g>
  <g>
    <path style="opacity:1" fill="#d607f4" d="M 285.5 28.5 C 285.5 22.167 285.5 15.833 285.5 9.5 C 285.833 9.5 286.167 9.5 286.5 9.5 C 289.833 9.5 293.167 9.5 296.5 9.5 C 296.797 16.92 296.464 24.254 295.5 31.5 C 293.251 32.08 291.601 33.476 290.516 35.563 C 289.516 36.23 289.205 37.412 288.205 38.079 C 287.539 41.6 286.418 45.518 285.751 49.33 C 285 48.454 284.233 48.409 283.984 47.285 C 283.139 50.197 281.112 50.148 278.624 49.236 C 278.447 45.38 277.54 41.4 276.717 37.923 C 274.971 36.171 273.754 34.415 271.5 33.5 C 270.9 32.1 269.9 31.1 268.5 30.5 C 268.5 23.5 268.5 16.5 268.5 9.5 C 271.833 9.5 275.167 9.5 278.5 9.5 C 278.5 16.167 278.5 22.833 278.5 29.5 C 281.059 29.802 283.393 29.468 285.5 28.5 Z"/>
  </g>
  <g>
    <path style="opacity:1" fill="#1d0123" d="M 279.5,9.5 C 280.49,15.31 280.823,21.31 280.5,27.5C 281.833,27.5 283.167,27.5 284.5,27.5C 284.177,21.31 284.51,15.31 285.5,9.5C 285.5,15.8333 285.5,22.1667 285.5,28.5C 283.5,28.5 281.5,28.5 279.5,28.5C 279.5,22.1667 279.5,15.8333 279.5,9.5 Z"/>
  </g>
  <g>
    <path style="opacity:1" fill="#bf15d9" d="M 223.5,10.5 C 223.114,12.9366 221.947,14.9366 220,16.5C 219.5,27.8284 219.333,39.1618 219.5,50.5C 222.167,50.5 224.833,50.5 227.5,50.5C 227.172,39.3206 227.505,28.3206 228.5,17.5C 228.5,28.8333 228.5,40.1667 228.5,51.5C 225.167,51.5 221.833,51.5 218.5,51.5C 218.333,39.4954 218.5,27.4954 219,15.5C 220.517,13.7605 222.017,12.0938 223.5,10.5 Z"/>
  </g>
  <g>
    <path style="opacity:1" fill="#380046" d="M 228.5,17.5 C 230.5,17.5 232.5,17.5 234.5,17.5C 234.5,28.8333 234.5,40.1667 234.5,51.5C 233.505,40.6794 233.172,29.6794 233.5,18.5C 232.167,18.5 230.833,18.5 229.5,18.5C 229.828,29.6794 229.495,40.6794 228.5,51.5C 228.5,40.1667 228.5,28.8333 228.5,17.5 Z"/>
  </g>
  <g>
    <path style="opacity:1" fill="#9915ae" d="M 234.5,17.5 C 235.495,28.3206 235.828,39.3206 235.5,50.5C 238.5,50.5 241.5,50.5 244.5,50.5C 244.172,39.3206 244.505,28.3206 245.5,17.5C 245.5,17.8333 245.5,18.1667 245.5,18.5C 245.5,29.5 245.5,40.5 245.5,51.5C 241.833,51.5 238.167,51.5 234.5,51.5C 234.5,40.1667 234.5,28.8333 234.5,17.5 Z"/>
  </g>
  <g>
    <path style="opacity:1" fill="#61066f" d="M 245.5,18.5 C 245.5,18.1667 245.5,17.8333 245.5,17.5C 247.5,17.5 249.5,17.5 251.5,17.5C 251.5,28.8333 251.5,40.1667 251.5,51.5C 250.505,40.6794 250.172,29.6794 250.5,18.5C 248.833,18.5 247.167,18.5 245.5,18.5 Z"/>
  </g>
  <g>
    <path style="opacity:1" fill="#460058" d="M 295.5,31.5 C 295.5,31.8333 295.5,32.1667 295.5,32.5C 294.078,33.925 292.411,34.925 290.5,35.5C 291.585,33.4131 293.251,32.0798 295.5,31.5 Z"/>
  </g>
  <g>
    <path style="opacity:1" fill="#772b16" d="M 161.5 15.5 C 163.681 24.881 163.018 34.754 162.193 44.597 C 161.485 45.477 160.458 46.047 159.5 46.5 C 159.461 45.244 159.961 44.244 161 43.5 C 161.5 34.173 161.666 24.839 161.5 15.5 Z"/>
  </g>
  <g>
    <path style="opacity:1" fill="#0f83e9" d="M 53.5 25.5 C 55.237 27.88 57.57 29.547 60.5 30.5 C 61.495 35.792 61.828 41.125 61.5 46.5 C 58.366 47.241 55.366 48.241 52.5 49.5 C 49.236 50.324 45.902 50.658 42.5 50.5 C 42.5 48.167 42.5 45.833 42.5 43.5 C 45.073 42.781 47.078 41.41 49.505 40.129 C 50.301 37.591 51.247 35.504 50.118 33.376 C 48.91 30.832 46.292 29.623 43.5 29.5 C 41.105 22.152 42.438 15.818 47.5 10.5 C 51.769 9.627 56.102 9.294 60.5 9.5 C 60.808 11.924 60.474 14.257 59.5 16.5 C 56.724 16.946 54.322 17.946 52.098 19.5 C 51.931 20.5 51.785 21.52 51.618 22.52 C 51.758 24.05 52.307 25.03 53.5 25.5 Z"/>
  </g>
  <g>
    <path style="opacity:1" fill="#5e026d" d="M 271.5,33.5 C 273.754,34.4151 275.754,35.7484 277.5,37.5C 277.5,42.1667 277.5,46.8333 277.5,51.5C 276.675,47.3528 276.175,43.0195 276,38.5C 274.293,36.9625 272.793,35.2959 271.5,33.5 Z"/>
  </g>
  <g>
    <path style="opacity:1" fill="#480056" d="M 290.64 35.36 C 289.136 40.639 287.996 46.112 287.5 51.5 C 287.5 46.833 287.5 42.167 287.5 37.5 C 288.5 36.833 289.64 36.026 290.64 35.36 Z"/>
  </g>
  <g>
    <path style="opacity:1" fill="#0c69e3" d="M 33.5,9.5 C 34.4682,11.6074 34.8016,13.9407 34.5,16.5C 34.5,17.1667 34.1667,17.5 33.5,17.5C 29.5,17.5 25.5,17.5 21.5,17.5C 21.5,20.5 21.5,23.5 21.5,26.5C 25.5,26.5 29.5,26.5 33.5,26.5C 33.5,28.8333 33.5,31.1667 33.5,33.5C 29.5,33.5 25.5,33.5 21.5,33.5C 21.5,36.8333 21.5,40.1667 21.5,43.5C 25.5,43.5 29.5,43.5 33.5,43.5C 33.5,45.8333 33.5,48.1667 33.5,50.5C 26.1667,50.5 18.8333,50.5 11.5,50.5C 11.5,36.8333 11.5,23.1667 11.5,9.5C 18.8333,9.5 26.1667,9.5 33.5,9.5 Z"/>
  </g>
  <g>
    <path style="opacity:1" fill="#066bf1" d="M 21.5,17.5 C 18.7079,18.3918 17.3746,20.3918 17.5,23.5C 18.5,23.5 19.5,23.5 20.5,23.5C 20.6567,24.8734 20.49,26.2068 20,27.5C 18.8904,25.9632 17.3904,25.2965 15.5,25.5C 15.4501,27.5901 16.4501,28.9234 18.5,29.5C 19.48,32.0865 19.8134,34.7531 19.5,37.5C 14.1667,38.1667 14.1667,38.8333 19.5,39.5C 19.5,40.5 19.5,41.5 19.5,42.5C 18.0222,42.238 16.6888,42.5713 15.5,43.5C 16.9501,44.8498 17.6168,46.5165 17.5,48.5C 15.8561,48.7135 14.3561,48.3802 13,47.5C 12.5001,35.1712 12.3335,22.8378 12.5,10.5C 19.1667,10.5 25.8333,10.5 32.5,10.5C 32.8333,12.5 33.1667,14.5 33.5,16.5C 29.2984,16.1832 25.2984,16.5166 21.5,17.5 Z"/>
  </g>
  <g>
    <path style="opacity:1" fill="#d24b2f" d="M 133.5 9.5 C 140.687 9.175 147.687 9.509 154.5 10.5 C 155.922 11.925 157.589 12.925 159.5 13.5 C 160.5 13.833 161.167 14.5 161.5 15.5 C 162.1 24.839 161.629 34.205 161.129 43.532 C 160.09 44.276 159.461 45.244 159.5 46.5 C 158.375 48.129 157.041 49.629 155.5 51 C 148.174 51.5 140.841 51.666 133.5 51.5 C 133.5 37.5 133.5 23.5 133.5 9.5 Z"/>
  </g>
  <g>
    <path style="opacity:1" fill="#f04c26" d="M 154.5,10.5 C 155.121,13.1213 156.788,14.788 159.5,15.5C 161.006,25.6292 160.673,35.6292 158.5,45.5C 157.167,45.5 155.833,45.5 154.5,45.5C 154.5,46.8333 154.5,48.1667 154.5,49.5C 147.863,50.2757 141.196,50.609 134.5,50.5C 134.5,37.1667 134.5,23.8333 134.5,10.5C 141.167,10.5 147.833,10.5 154.5,10.5 Z"/>
  </g>
  <g>
    <path style="opacity:1" fill="#b24129" d="M 144.5,17.5 C 144.5,25.8333 144.5,34.1667 144.5,42.5C 146.735,42.7947 148.735,42.4614 150.5,41.5C 151.492,33.6841 151.826,25.6841 151.5,17.5C 152.657,25.6563 152.823,33.9896 152,42.5C 149.519,44.3137 146.685,44.9804 143.5,44.5C 143.173,35.3178 143.507,26.3178 144.5,17.5 Z"/>
  </g>
  <g>
    <path style="opacity:1" fill="#2d0400" d="M 144.5,17.5 C 146.833,17.5 149.167,17.5 151.5,17.5C 151.826,25.6841 151.492,33.6841 150.5,41.5C 148.735,42.4614 146.735,42.7947 144.5,42.5C 144.5,34.1667 144.5,25.8333 144.5,17.5 Z"/>
  </g>
  <g>
    <path style="opacity:1" fill="#070000" d="M 150.5,41.5 C 148.833,41.5 147.167,41.5 145.5,41.5C 145.5,33.8333 145.5,26.1667 145.5,18.5C 147.167,18.5 148.833,18.5 150.5,18.5C 150.5,26.1667 150.5,33.8333 150.5,41.5 Z"/>
  </g>
  <g>
    <path style="opacity:1" fill="#e7191e" d="M 192.5,10.5 C 192.5,12.5 192.5,14.5 192.5,16.5C 188.167,16.5 183.833,16.5 179.5,16.5C 179.5,20.1667 179.5,23.8333 179.5,27.5C 183.5,27.5 187.5,27.5 191.5,27.5C 191.5,29.5 191.5,31.5 191.5,33.5C 187.167,33.5 182.833,33.5 178.5,33.5C 178.211,37.1064 178.544,40.6064 179.5,44C 183.821,44.499 188.154,44.6657 192.5,44.5C 192.5,46.5 192.5,48.5 192.5,50.5C 185.167,50.5 177.833,50.5 170.5,50.5C 170.5,37.1667 170.5,23.8333 170.5,10.5C 177.833,10.5 185.167,10.5 192.5,10.5 Z"/>
  </g>
  <g>
    <path style="opacity:1" fill="#c50fdf" d="M 277.5,37.5 C 278.323,40.977 278.823,44.6437 279,48.5C 281.488,49.4122 283.155,48.4122 284,45.5C 284.249,46.624 284.749,47.624 285.5,48.5C 286.167,44.6875 286.834,41.0208 287.5,37.5C 287.5,42.1667 287.5,46.8333 287.5,51.5C 284.167,51.5 280.833,51.5 277.5,51.5C 277.5,46.8333 277.5,42.1667 277.5,37.5 Z"/>
  </g>
  <g>
    <path style="opacity:1" fill="#080813" d="M 10.5 9.5 C 10.5 23.5 10.5 37.5 10.5 51.5 C 18.5 51.5 26.469 51.285 34.469 51.285 C 35.787 48.221 35.48 45.73 34.162 42.461 C 30.176 41.962 26.422 41.981 22.408 42.146 C 22.408 39.813 22.1 36.341 22.1 34.008 C 25.971 34.323 30.038 34.482 33.5 33.5 C 33.5 31.167 33.5 28.833 33.5 26.5 C 34.164 28.042 34.83 29.709 35.5 31.5 C 39.557 28.259 40.557 24.092 38.5 19 C 38.707 17.05 39.707 15.884 41.5 15.5 C 41.334 20.179 41.501 24.845 42 29.5 C 44.373 31.12 46.873 32.454 49.5 33.5 C 49.5 35.5 49.5 37.5 49.5 39.5 C 46.928 40.219 44.643 41.404 42.215 42.685 C 41.717 45.667 41.612 48.174 41.777 51.192 C 45.127 51.357 47.853 51.168 51.17 50.67 C 51.726 50.287 52.018 49.911 52.129 49.294 C 54.995 48.035 57.83 46.994 60.964 46.253 C 61.292 40.878 61.495 35.792 60.5 30.5 C 57.57 29.547 54.66 28.004 52.923 25.624 C 52.639 23.709 53.814 21.84 54.765 20.421 C 54.887 24.759 54.914 24.842 55.459 21.17 C 57.126 21.17 58.833 21.5 60.5 21.5 C 60.389 22.117 60.056 22.617 59.5 23 C 62.211 24.261 64.378 26.094 66 28.5 C 66.667 34.833 66.667 41.167 66 47.5 C 65.535 48.931 64.701 50.098 63.5 51 C 55.656 56.365 47.156 57.865 38 55.5 C 36.559 56.26 35.366 56.926 33.438 57.223 C 25.091 56.819 16.882 56.196 8.5 56 C 7.584 55.722 6.918 55.222 6.5 54.5 C 7.5 54.5 7.946 54.162 8.946 54.162 C 8.617 38.986 9.504 24.324 10.5 9.5 Z M 38.5 34.5 C 44.948 35.134 45.115 36.467 39 38.5 C 38.5 38.167 38 37.833 37.5 37.5 C 38.127 36.583 38.461 35.583 38.5 34.5 Z"/>
  </g>
  <g>
    <path style="opacity:1" fill="#105a9e" d="M 50.077 33.294 C 51.206 35.422 50.796 37.962 50 40.5 C 47.573 41.781 45.073 42.781 42.5 43.5 C 42.5 45.833 42.5 48.167 42.5 50.5 C 45.902 50.658 49.023 50.057 52.287 49.233 C 52.176 49.85 51.974 50.617 51.418 51 C 48.101 51.498 44.85 51.665 41.5 51.5 C 41.335 48.482 41.502 45.482 42 42.5 C 44.428 41.219 46.928 40.219 49.5 39.5 C 49.5 37.5 48.635 31.585 50.077 33.294 Z"/>
  </g>
  <g>
    <path style="opacity:1" fill="#001c49" d="M 33.5,33.5 C 30.0381,34.4816 26.3714,34.815 22.5,34.5C 22.5,36.8333 22.5,39.1667 22.5,41.5C 26.5138,41.3345 30.5138,41.5012 34.5,42C 35.8184,45.2688 35.8184,48.4355 34.5,51.5C 34.8064,48.6146 34.4731,45.9479 33.5,43.5C 29.5,43.5 25.5,43.5 21.5,43.5C 21.5,40.1667 21.5,36.8333 21.5,33.5C 25.5,33.5 29.5,33.5 33.5,33.5 Z"/>
  </g>
  <g>
    <path style="opacity:1" fill="#001740" d="M 21.5,17.5 C 25.5,17.5 29.5,17.5 33.5,17.5C 30.0381,18.4816 26.3714,18.815 22.5,18.5C 22.5,20.8333 22.5,23.1667 22.5,25.5C 26.3714,25.185 30.0381,25.5184 33.5,26.5C 29.5,26.5 25.5,26.5 21.5,26.5C 21.5,23.5 21.5,20.5 21.5,17.5 Z"/>
  </g>
  <g>
    <path style="opacity:1" fill="#400304" d="M 192.5 50.5 C 192.833 50.5 193.177 50.503 193.51 50.503 C 189.903 51.827 185.911 52.654 181.5 52.609 C 177.319 52.566 173.319 52.166 169.5 51.5 C 177.352 51.825 185.018 51.492 192.5 50.5 Z"/>
  </g>
</svg>